<svg version="1.1" id="Layer_1" xmlns="http://www.w3.org/2000/svg" xmlns:xlink="http://www.w3.org/1999/xlink" x="0px" y="0px"
	 width="100%" viewBox="0 0 804 227" enable-background="new 0 0 804 227" xml:space="preserve">
<path fill="#070707" opacity="1.000000" stroke="none" 
	d="
M113.785110,1.347923 
	C342.783722,1.000000 571.567444,1.016091 800.351135,0.876432 
	C804.618774,0.873827 805.106018,2.003443 805.098938,5.849344 
	C804.964539,78.500008 804.961792,151.151077 805.109375,223.801682 
	C805.117004,227.548676 804.166565,228.086258 800.699951,228.085037 
	C535.590759,227.992203 270.481537,227.994171 5.372348,228.067474 
	C2.105318,228.068375 0.866685,227.824677 0.875859,223.873886 
	C1.045330,150.890106 1.035124,77.905746 0.894434,4.921837 
	C0.887529,1.339691 1.816990,0.884625 5.077353,0.911046 
	C26.404636,1.083879 47.734001,1.000000 69.531342,1.000000 
	C71.156876,4.344822 68.238190,4.555214 66.469505,5.131766 
	C57.905769,7.923356 50.550541,12.715823 43.801403,18.502644 
	C32.559299,28.141808 26.042126,40.361519 24.463984,55.103245 
	C22.347630,74.872528 23.835110,94.711426 23.516558,114.516106 
	C23.291525,128.506516 23.458426,142.503479 23.476988,156.497498 
	C23.498137,172.439743 27.021370,187.166504 37.891815,199.533813 
	C49.562405,212.811523 64.348648,220.203171 81.638603,222.285843 
	C100.182510,224.519592 117.855431,221.622070 133.608200,210.784378 
	C137.722000,207.954147 141.765503,204.970459 145.066254,201.170517 
	C148.820923,196.848038 149.247879,192.348267 146.343842,189.530655 
	C143.348389,186.624359 137.996765,186.930557 134.167084,190.552856 
	C130.047836,194.449066 125.985466,198.338150 121.111526,201.349564 
	C97.036606,216.224533 63.252850,209.655167 46.832111,186.763519 
	C41.210587,178.926712 38.624496,169.998230 38.583248,160.464096 
	C38.444851,128.478287 38.302425,96.489594 38.599098,64.505867 
	C38.887173,33.448856 66.651054,17.729923 86.443909,16.484785 
	C101.511009,15.536938 115.205460,18.803865 127.264465,28.120295 
	C130.044403,30.267990 132.401215,32.865887 134.920273,35.289909 
	C137.061050,37.349941 139.511963,38.540844 142.540298,38.432453 
	C145.575760,38.323803 148.123642,37.341057 149.498245,34.438984 
	C150.786697,31.718771 150.017319,29.282253 148.281036,26.988981 
	C140.720963,17.003740 130.871368,10.190639 119.238182,5.763255 
	C117.047470,4.929511 114.099213,4.932778 113.785110,1.347923 
z"/>
<path fill="#FDFDFD" opacity="1.000000" stroke="none" 
	d="
M113.531342,1.000000 
	C115.248459,2.787444 115.241982,2.806372 117.576469,3.605088 
	C129.992554,7.853121 140.437027,14.952621 148.756363,25.131830 
	C152.949249,30.262091 153.066360,34.195377 149.138260,37.839424 
	C145.238892,41.456806 138.629028,41.408749 134.758682,37.248001 
	C128.910767,30.961334 122.483017,25.629747 114.565651,22.103115 
	C90.215775,11.256945 60.352558,19.750620 46.631802,41.543293 
	C42.265244,48.478691 40.170692,56.071243 40.170006,64.251602 
	C40.167374,95.575996 40.705196,126.912399 40.003757,158.221069 
	C39.414482,184.523254 59.449337,203.662842 82.922874,207.056274 
	C102.776741,209.926453 119.717804,204.290115 133.315659,189.241806 
	C137.159851,184.987549 143.153595,184.563843 147.139526,188.043427 
	C150.922729,191.346039 151.071472,196.160172 147.522842,200.450455 
	C117.245819,237.055405 51.328339,230.844772 29.083542,189.280487 
	C25.100428,181.838043 22.656115,173.908035 22.635014,165.437164 
	C22.546612,129.949326 22.034069,94.450218 22.749847,58.976883 
	C23.259905,33.698841 40.206825,13.054423 65.629623,3.870358 
	C67.296310,3.268265 69.304886,3.280293 70.264404,1.326479 
	C84.354225,1.000000 98.708458,1.000000 113.531342,1.000000 
z"/>
<path fill="#FBFBFB" opacity="1.000000" stroke="none" 
	d="
M556.337158,147.514542 
	C564.364075,142.929886 569.690796,136.730438 572.100769,128.014175 
	C573.655334,122.392067 578.617065,119.797333 583.604492,121.491966 
	C588.344360,123.102478 590.072815,127.195709 588.419434,132.894577 
	C582.059021,154.817978 558.575134,170.187683 535.008972,167.517563 
	C514.168823,165.156281 498.506775,155.206329 491.258606,134.862152 
	C484.507111,115.912056 492.343536,94.795792 509.353180,83.799927 
	C532.156006,69.059105 560.012085,71.702789 577.801514,90.296082 
	C584.156677,96.938339 583.765137,101.417725 576.256165,106.395210 
	C559.203735,117.698822 542.121704,128.957870 525.036682,140.212158 
	C523.203186,141.419876 521.153931,142.539490 521.455933,145.103760 
	C521.759521,147.681763 524.103210,148.273071 526.101929,149.060486 
	C536.273865,153.067657 546.250916,152.547928 556.337158,147.514542 
z"/>
<path fill="#FCFCFC" opacity="1.000000" stroke="none" 
	d="
M195.868881,164.279205 
	C181.622482,156.703018 175.004456,143.794083 178.072952,130.042023 
	C181.044662,116.723892 194.446671,106.263786 209.322891,105.923218 
	C218.639832,105.709900 227.964844,105.852173 237.286209,105.826546 
	C239.646194,105.820061 242.097321,105.860535 243.246765,103.220459 
	C244.373993,100.631439 242.670822,98.763298 241.258224,96.973137 
	C237.348969,92.019073 231.962982,90.223839 225.873291,90.183708 
	C218.549377,90.135445 211.224625,90.209267 203.900757,90.157387 
	C198.399094,90.118416 194.522964,87.061501 194.345840,82.761421 
	C194.175613,78.628113 198.239700,74.432266 203.244614,74.369308 
	C212.722534,74.250092 222.226898,74.190208 231.681671,74.753540 
	C245.728821,75.590508 262.231232,87.665771 261.604004,108.430878 
	C261.111664,124.729073 261.418243,141.054779 261.559387,157.366623 
	C261.600372,162.107269 260.132416,165.641891 255.394989,166.893860 
	C250.929138,168.074020 247.206757,166.835602 244.924377,162.411194 
	C243.004028,158.688568 240.270126,158.995743 236.989548,160.748230 
	C227.231232,165.961121 216.857986,168.364029 205.745300,167.147278 
	C202.397034,166.780670 199.261292,165.796722 195.868881,164.279205 
z"/>
<path fill="#FAFAFA" opacity="1.000000" stroke="none" 
	d="
M700.291870,140.999359 
	C700.291931,109.525185 700.310608,78.550842 700.271423,47.576569 
	C700.265686,43.039848 701.393311,39.414619 706.150696,37.717869 
	C709.936707,36.367580 712.956177,37.381557 715.652649,40.123524 
	C717.444946,41.946102 717.728149,44.182491 717.721802,46.571404 
	C717.699219,55.064304 717.703613,63.557316 717.716064,72.050255 
	C717.727112,79.603386 719.332520,80.697403 726.344299,77.971664 
	C745.339966,70.587311 764.186279,74.727730 777.899231,89.336395 
	C784.454224,96.319580 787.743774,104.729767 787.885071,114.209511 
	C788.101013,128.694305 788.029907,143.184235 787.983337,157.671677 
	C787.963013,163.996750 784.712708,167.524078 779.259888,167.494186 
	C774.018738,167.465454 770.862488,163.756271 770.840027,157.359253 
	C770.792664,143.870605 770.854248,130.381577 770.817566,116.892860 
	C770.774963,101.211617 759.323181,89.956833 743.601624,90.079224 
	C728.443481,90.197212 717.351318,101.412476 717.315430,116.718040 
	C717.283447,130.373306 717.334839,144.028793 717.296509,157.684036 
	C717.279358,163.794250 714.285706,167.191956 709.008362,167.293365 
	C703.596802,167.397354 700.358643,163.790482 700.301880,157.486282 
	C700.253906,152.157654 700.291870,146.828262 700.291870,140.999359 
z"/>
<path fill="#FBFBFB" opacity="1.000000" stroke="none" 
	d="
M80.892632,135.718307 
	C79.782555,120.355553 80.159508,105.372932 80.594765,90.406906 
	C80.750618,85.048004 85.137772,81.799156 90.446526,81.998413 
	C95.828491,82.200424 99.434349,85.682564 99.834885,91.064697 
	C100.538124,100.514297 103.090179,102.909241 112.489456,102.921814 
	C117.820160,102.928947 123.152908,103.015411 128.481064,102.898636 
	C134.980042,102.756203 138.614670,99.061737 138.679367,92.599998 
	C138.754410,85.104576 138.614868,77.605980 138.763763,70.112648 
	C138.882111,64.156815 142.889984,60.142979 148.319107,60.179882 
	C153.698059,60.216442 157.900116,64.437050 157.910355,70.178650 
	C157.962357,99.330856 157.967682,128.483292 157.904816,157.635452 
	C157.892456,163.367111 154.147110,167.077835 148.647858,167.278244 
	C142.814499,167.490860 138.710098,163.942108 138.563675,157.992874 
	C138.350571,149.335709 138.524033,140.669525 138.483704,132.007416 
	C138.445709,123.851028 135.447037,120.786102 127.432724,120.715088 
	C121.769295,120.664902 116.104530,120.656631 110.441315,120.717773 
	C103.285172,120.795021 100.027237,123.989830 99.837753,130.976471 
	C99.668472,137.218124 97.609444,140.456070 92.961342,141.790115 
	C88.307228,143.125870 84.143303,141.151978 80.892632,135.718307 
z"/>
<path fill="#FCFCFC" opacity="1.000000" stroke="none" 
	d="
M384.581665,103.682220 
	C373.071838,86.730675 350.049744,85.463501 338.634644,100.876862 
	C335.697693,104.842560 333.992340,109.306480 333.968872,114.293297 
	C333.901459,128.619537 333.910400,142.946182 333.821991,157.272247 
	C333.780853,163.939560 330.468445,167.425278 324.685577,167.113052 
	C319.858826,166.852448 316.810059,163.566895 316.732086,158.083618 
	C316.608887,149.422195 316.695740,140.757797 316.695374,132.094650 
	C316.694733,116.267754 316.743591,100.440620 316.662537,84.614136 
	C316.641388,80.481216 317.389343,76.982735 321.688416,75.268867 
	C326.122253,73.501282 329.867462,74.475151 332.797699,78.203369 
	C335.278931,81.360336 337.924774,80.155319 340.796051,78.893211 
	C355.965668,72.225273 370.931335,72.517235 385.149872,81.278076 
	C397.815216,89.081932 404.540100,100.724243 404.778839,115.693466 
	C405.001984,129.684204 404.898071,143.681671 404.804749,157.675278 
	C404.763306,163.891556 401.710114,167.191162 396.387726,167.275009 
	C391.088226,167.358505 387.603058,163.755890 387.539368,157.522491 
	C387.403107,144.195969 387.492462,130.867111 387.493713,117.539207 
	C387.494171,112.844994 387.086456,108.234695 384.581665,103.682220 
z"/>
<path fill="#FBFBFB" opacity="1.000000" stroke="none" 
	d="
M675.409912,95.956528 
	C671.079407,97.061707 667.922119,95.055504 664.629456,93.467834 
	C649.432373,86.140091 630.099304,91.066536 620.998230,104.550163 
	C609.044800,122.259819 619.563293,146.206940 641.335144,150.933640 
	C650.154785,152.848389 658.523193,151.714432 666.469849,147.487549 
	C668.858582,146.216949 671.240234,145.161530 674.050232,145.736511 
	C677.436890,146.429535 679.912598,148.299683 680.758057,151.655258 
	C681.616943,155.064087 680.379395,158.084229 677.364746,159.831619 
	C660.989868,169.323044 643.951904,170.643127 626.769714,162.542206 
	C610.524353,154.882996 600.832703,141.893814 599.277344,123.824272 
	C597.428772,102.349220 613.803406,81.738602 636.705627,76.039474 
	C650.352356,72.643524 663.412170,74.371124 675.769714,81.177956 
	C678.839355,82.868790 681.203491,84.950996 681.184143,88.840889 
	C681.165527,92.588287 678.884460,94.509209 675.409912,95.956528 
z"/>
<path fill="#FAFAFA" opacity="1.000000" stroke="none" 
	d="
M424.289917,67.999908 
	C424.290131,60.667263 424.206421,53.833260 424.315369,47.002335 
	C424.413574,40.844131 427.954407,36.984367 433.137909,37.093502 
	C438.149994,37.199028 441.386230,40.864552 441.485260,46.904980 
	C441.602722,54.069027 441.635864,61.239281 441.469147,68.401344 
	C441.370636,72.632339 442.964600,74.453339 447.334320,74.342278 
	C455.328369,74.139091 463.333801,74.399315 471.329193,74.224983 
	C474.262726,74.161018 475.347687,74.854057 475.395233,78.047310 
	C475.574402,90.082222 475.701080,90.080284 463.571259,90.080345 
	C459.571655,90.080368 455.571198,90.028137 451.572632,90.092422 
	C444.320709,90.209000 441.576324,92.870300 441.536896,100.093033 
	C441.462311,113.757957 441.476135,127.423721 441.529846,141.088837 
	C441.560913,148.994736 444.019104,151.567902 452.054199,151.604935 
	C455.183197,151.619370 456.284607,152.244019 456.271545,155.660355 
	C456.223755,168.151230 456.368988,168.151764 443.748596,167.187988 
	C432.187622,166.305115 424.512115,158.084473 424.327576,145.991669 
	C424.154694,134.662094 424.290009,123.327797 424.289917,111.995583 
	C424.289795,97.497025 424.289917,82.998459 424.289917,67.999908 
z"/>
<path fill="#FBFBFB" opacity="1.000000" stroke="none" 
	d="
M297.173492,138.000046 
	C297.173462,145.164124 297.214081,151.828537 297.160431,158.492188 
	C297.117737,163.793213 294.023071,167.105667 289.087555,167.293594 
	C284.023285,167.486420 280.343567,164.069672 280.199707,158.643692 
	C280.031952,152.317245 280.158173,145.982971 280.158051,139.652100 
	C280.157715,121.325874 280.124542,102.999557 280.174652,84.673470 
	C280.194489,77.419495 284.451630,73.270836 290.483795,74.530258 
	C295.302795,75.536400 297.247803,78.624146 297.217499,83.521225 
	C297.106201,101.513573 297.173431,119.507011 297.173492,138.000046 
z"/>
<path fill="#FBFBFB" opacity="1.000000" stroke="none" 
	d="
M291.494537,56.074642 
	C288.743652,56.420547 286.407959,56.460892 284.229858,55.455505 
	C280.208649,53.599380 278.021210,49.198318 278.798584,44.735634 
	C279.490051,40.766090 283.448944,37.362629 287.958221,36.861050 
	C292.928833,36.308155 297.615753,38.979191 299.060974,43.381962 
	C300.525635,47.843750 299.401276,51.590889 295.436554,54.268425 
	C294.359619,54.995731 293.091644,55.440128 291.494537,56.074642 
z"/>
<path fill="#0A0A0A" opacity="1.000000" stroke="none" 
	d="
M507.318298,127.549011 
	C502.609772,109.578255 517.347168,90.941246 536.449158,90.001221 
	C542.525085,89.702217 548.397339,90.390518 553.973694,92.946671 
	C558.867859,95.190086 559.210754,98.231743 554.710205,101.227959 
	C541.291870,110.160980 527.805481,118.991737 514.343445,127.859146 
	C512.091125,129.342819 509.823761,130.019531 507.318298,127.549011 
z"/>
<path fill="#0B0B0B" opacity="1.000000" stroke="none" 
	d="
M238.439224,138.357910 
	C231.212708,147.440308 221.930023,151.635483 210.845627,151.656158 
	C201.615814,151.673386 194.297836,144.625885 194.411575,136.351807 
	C194.522537,128.278488 201.700790,121.495087 210.679031,121.328438 
	C219.839157,121.158417 229.005539,121.225838 238.167953,121.315346 
	C243.398285,121.366447 244.518951,123.116257 243.303482,128.216812 
	C242.435928,131.857437 240.703476,135.020279 238.439224,138.357910 
z"/>
</svg>